<svg width="40" height="33" viewBox="0 0 40 33" fill="none" xmlns="http://www.w3.org/2000/svg">
<g clip-path="url(#clip0_13427_8539)">
<path fill-rule="evenodd" clip-rule="evenodd" d="M34.6924 22.5906C34.6626 22.5906 34.6327 22.5894 34.6028 22.5871C34.2805 22.5621 33.9835 22.4031 33.7839 22.149L30.0423 17.3865C29.648 16.8849 29.7352 16.1585 30.2369 15.7644C30.7387 15.3704 31.4649 15.4576 31.859 15.9591L33.9198 18.5822C34.0196 17.9389 34.0753 17.2873 34.086 16.6336C34.1462 12.9748 32.7992 9.48011 30.2931 6.79332C27.7885 4.10812 24.4012 2.52343 20.7552 2.33108C16.3526 2.09874 12.1832 3.84849 9.31418 7.13137C8.89439 7.61166 8.16457 7.66076 7.68414 7.24112C7.20371 6.82119 7.15461 6.09137 7.57439 5.61108C10.9133 1.79043 15.7618 -0.2461 20.8769 0.0237923C25.1237 0.247763 29.0678 2.09224 31.9826 5.21744C34.8989 8.34394 36.4662 12.4118 36.3962 16.6716C36.3868 17.2427 36.3478 17.8128 36.2798 18.3783L37.9701 16.8042C38.4369 16.3694 39.168 16.3953 39.6028 16.8622C40.0376 17.3291 40.0116 18.06 39.5448 18.495L35.4797 22.2807C35.2651 22.4805 34.9833 22.5906 34.6924 22.5906Z" fill="#FF713C"/>
<path fill-rule="evenodd" clip-rule="evenodd" d="M19.9365 32.7312C19.6371 32.7312 19.3373 32.7232 19.0358 32.7074C14.789 32.4834 10.8448 30.6389 7.9299 27.5137C5.0138 24.3872 3.44644 20.3193 3.51647 16.0596C3.52586 15.4883 3.56485 14.9183 3.63286 14.3527L1.94261 15.927C1.47561 16.3618 0.744633 16.3358 0.309832 15.8689C-0.12497 15.4019 -0.098977 14.671 0.367882 14.2362L4.43301 10.4505C4.66954 10.2301 4.98738 10.1193 5.30983 10.144C5.632 10.169 5.92918 10.328 6.12875 10.5822L9.87041 15.3446C10.2646 15.8463 10.1774 16.5726 9.67575 16.9667C9.17409 17.3609 8.44774 17.2739 8.05366 16.772L5.99286 14.1489C5.89308 14.7923 5.83734 15.4438 5.82665 16.0975C5.76644 19.7562 7.11344 23.2509 9.61958 25.9378C12.1241 28.623 15.5113 30.2077 19.1573 30.4001C23.5592 30.6314 27.7295 28.8827 30.5984 25.5998C31.0181 25.1193 31.7478 25.0701 32.2285 25.49C32.709 25.9098 32.7581 26.6396 32.3381 27.1201C29.1962 30.7156 24.7163 32.7312 19.9365 32.7312Z" fill="#FF713C"/>
<path d="M25.6166 21.036V21.2453H22.9883V21.036C22.9883 20.8266 23.1986 20.6172 23.4088 20.6172H25.091C25.4064 20.6172 25.6166 20.8266 25.6166 21.036Z" fill="#FF713C"/>
<path d="M16.3632 14.6523H15.1016V20.2004H16.3632V14.6523Z" fill="#FF713C"/>
<path d="M20.6757 14.6523H19.4141V20.2004H20.6757V14.6523Z" fill="#FF713C"/>
<path d="M20.884 14.2335H19.2017C18.9915 14.2335 18.7812 14.0242 18.7812 13.8148V13.6055H21.3045V13.8148C21.3045 14.0242 21.0942 14.2335 20.884 14.2335Z" fill="#FF713C"/>
<path d="M18.7812 21.036C18.7812 20.8266 18.9915 20.6172 19.2017 20.6172H20.884C21.0942 20.6172 21.3045 20.8266 21.3045 21.036V21.2453H18.7812V21.036Z" fill="#FF713C"/>
<path d="M24.9843 14.6523H23.7227V20.2004H24.9843V14.6523Z" fill="#FF713C"/>
<path d="M25.6166 13.8148C25.6166 14.0242 25.4064 14.2335 25.1961 14.2335H23.4088C23.1986 14.2335 22.9883 14.0242 22.9883 13.8148V13.6055H25.6166V13.8148Z" fill="#FF713C"/>
<path d="M14.2607 13.1864H13.9453L20.043 9.41797L26.1407 13.1864H25.8253H22.7764H21.5148H18.5711H17.3095H14.2607Z" fill="#FF713C"/>
<path d="M14.4727 13.8148V13.6055H16.9959V13.8148C16.9959 14.0242 16.7856 14.2335 16.5753 14.2335H14.8932C14.6829 14.2335 14.4727 14.0242 14.4727 13.8148Z" fill="#FF713C"/>
<path d="M14.4727 21.036C14.4727 20.8266 14.6829 20.6172 14.8932 20.6172H16.5753C16.7856 20.6172 16.9959 20.8266 16.9959 21.036V21.2453H14.4727V21.036Z" fill="#FF713C"/>
<path d="M26.6687 22.5016H13.4219V22.0828C13.4219 21.8735 13.6322 21.6641 13.8424 21.6641H14.263H17.2067H18.4683H21.412H22.6736H25.6173H26.0379C26.2481 21.6641 26.4584 21.8735 26.4584 22.0828V22.5016H26.6687Z" fill="#FF713C"/>
<path d="M20.0435 12.5584C20.6241 12.5584 21.0948 12.0897 21.0948 11.5116C21.0948 10.9335 20.6241 10.4648 20.0435 10.4648C19.4629 10.4648 18.9922 10.9335 18.9922 11.5116C18.9922 12.0897 19.4629 12.5584 20.0435 12.5584Z" fill="#FF713C"/>
<path d="M20.0449 12.1389C20.3933 12.1389 20.6757 11.8577 20.6757 11.5109C20.6757 11.164 20.3933 10.8828 20.0449 10.8828C19.6965 10.8828 19.4141 11.164 19.4141 11.5109C19.4141 11.8577 19.6965 12.1389 20.0449 12.1389Z" fill="white"/>
</g>
<defs>
<clipPath id="clip0_13427_8539">
<rect width="40" height="33" fill="white"/>
</clipPath>
</defs>
</svg>
