<svg width="24" height="24" viewBox="0 0 24 24" fill="none" xmlns="http://www.w3.org/2000/svg">
<path d="M13.2423 19.1939L12.4191 20.0386C12.0705 20.3962 11.5068 20.3962 11.1619 20.0386L3.95285 12.6459C3.60426 12.2883 3.60426 11.7099 3.95285 11.3561L11.1619 3.95964C11.5105 3.60199 12.0742 3.60199 12.4191 3.95964L13.2423 4.8043C13.5946 5.16575 13.5872 5.75549 13.2275 6.10933L8.7589 10.4772H19.4168C19.91 10.4772 20.3068 10.8843 20.3068 11.3903V12.6079C20.3068 13.1139 19.91 13.521 19.4168 13.521H8.7589L13.2275 17.8889C13.5909 18.2427 13.5983 18.8324 13.2423 19.1939Z" fill="#121212"/>
</svg>
