<svg width="31" height="24" viewBox="0 0 31 24" fill="none" xmlns="http://www.w3.org/2000/svg">
<path d="M15.0293 23.6427C6.81613 23.6427 0.25 18.351 0.25 11.9463C0.25 5.54172 6.81613 0.25 15.0293 0.25C23.2424 0.25 29.8085 5.54172 29.8085 11.9463C29.8085 18.351 23.2424 23.6427 15.0293 23.6427ZM15.0293 1.45878C7.85167 1.45878 1.89976 6.1173 1.89976 11.9463C1.89976 17.7758 7.85219 22.4188 15.0293 22.4188C22.2069 22.4188 28.1588 17.7603 28.1588 11.9312C28.1588 6.10198 22.2256 1.45878 15.0293 1.45878Z" stroke="#FF713C" stroke-width="0.5"/>
<path d="M25.6617 13.3428L25.668 13.1508L25.6845 12.6511L25.1846 12.6406L24 12.616L24.0227 11.927L25.2073 11.9516L25.7072 11.9621L25.7237 11.4623L25.7303 11.2598L26.9203 12.3268L25.6617 13.3428Z" stroke="#FF713C"/>
<path d="M23.1525 9.90338V15.2112C23.1525 15.4531 22.9242 15.6497 22.6199 15.6497H8.88425C8.65595 15.6497 8.46571 15.5287 8.38961 15.3624C8.37059 15.317 8.35156 15.2566 8.35156 15.2112V9.90338C8.35156 9.66143 8.57986 9.46484 8.88425 9.46484H22.6199C22.6769 9.46484 22.734 9.46484 22.772 9.47997C22.9813 9.54045 23.1525 9.7068 23.1525 9.90338Z" fill="white"/>
<path d="M8.90378 9.98047H22.3106V14.8902C22.302 14.8919 22.2911 14.8932 22.2779 14.8932H8.87109V9.98337C8.87973 9.98169 8.89055 9.98047 8.90378 9.98047Z" stroke="#FF713C"/>
<path d="M22.4885 9.37213V14.6799C22.4885 14.9219 22.2602 15.1185 21.9558 15.1185H8.22018C7.99189 15.1185 7.80165 14.9975 7.72555 14.8312C7.70653 14.7858 7.6875 14.7253 7.6875 14.6799V9.37213C7.6875 9.13018 7.91579 8.93359 8.22018 8.93359H21.9558C22.0129 8.93359 22.0699 8.93359 22.108 8.94872C22.3173 9.0092 22.4885 9.17555 22.4885 9.37213Z" fill="white"/>
<path d="M8.23581 9.44922H21.6426V14.359C21.634 14.3607 21.6232 14.3619 21.61 14.3619H8.20312V9.45212C8.21176 9.45044 8.22258 9.44922 8.23581 9.44922Z" stroke="#FF713C"/>
<path d="M21.8205 8.84479V14.1526C21.8205 14.3945 21.5922 14.5911 21.2878 14.5911H7.55221C7.26685 14.5911 7.01953 14.3945 7.01953 14.1526V8.84479C7.01953 8.60284 7.24782 8.40625 7.55221 8.40625H21.2878C21.5732 8.40625 21.8205 8.60284 21.8205 8.84479Z" fill="white"/>
<path d="M14.2878 12.6671L13.7726 11.7947H13.7421H13.2041V12.6671H12.5859V9.53516H13.7421C13.9787 9.53516 14.1835 9.58139 14.3565 9.67386C14.532 9.76633 14.6668 9.89757 14.7609 10.0676C14.855 10.2376 14.9021 10.439 14.9021 10.6716C14.9021 10.9043 14.8538 11.1056 14.7571 11.2756C14.663 11.4427 14.5282 11.571 14.3526 11.6604L14.9517 12.6671H14.2878ZM14.2763 10.6716C14.2763 10.4956 14.228 10.3614 14.1313 10.2689C14.0347 10.1735 13.8935 10.1258 13.7078 10.1258H13.2041V11.2175H13.7078C13.8935 11.2175 14.0347 11.1698 14.1313 11.0743C14.228 10.9789 14.2763 10.8446 14.2763 10.6716Z" fill="#FF713C"/>
<path d="M16.5633 10.2242C16.7541 10.2242 16.9271 10.2764 17.0823 10.3808C17.24 10.4822 17.3634 10.6269 17.4524 10.8148C17.5414 10.9997 17.5859 11.216 17.5859 11.4636C17.5859 11.7111 17.5414 11.9289 17.4524 12.1168C17.3634 12.3017 17.24 12.4464 17.0823 12.5508C16.9271 12.6522 16.7541 12.7029 16.5633 12.7029C16.3013 12.7029 16.0952 12.606 15.9452 12.4121V13.5352H15.3499V10.26H15.9184V10.5374C16.066 10.3286 16.2809 10.2242 16.5633 10.2242ZM16.4603 12.1302C16.6129 12.1302 16.7376 12.0706 16.8342 11.9513C16.9334 11.829 16.983 11.6664 16.983 11.4636C16.983 11.2607 16.9334 11.0997 16.8342 10.9803C16.7376 10.858 16.6129 10.7969 16.4603 10.7969C16.3077 10.7969 16.1817 10.858 16.0825 10.9803C15.9859 11.0997 15.9375 11.2607 15.9375 11.4636C15.9375 11.6664 15.9859 11.829 16.0825 11.9513C16.1817 12.0706 16.3077 12.1302 16.4603 12.1302Z" fill="#FF713C"/>
<path d="M21.3639 8.96461C21.3639 8.96461 21.3639 8.94949 21.3448 8.94949C21.3258 8.91924 21.2878 8.889 21.2687 8.85875C21.2497 8.84363 21.2497 8.84363 21.2307 8.82851C21.2117 8.81339 21.1736 8.79827 21.1546 8.78314C21.1356 8.78314 21.1356 8.76802 21.1165 8.76802C21.0975 8.76802 21.0785 8.7529 21.0595 8.7529C21.0024 8.73778 20.9453 8.72266 20.8883 8.72266H7.93264H7.91362C7.87557 8.72266 7.83752 8.72266 7.81849 8.73778H7.79947C7.64727 8.78314 7.5141 8.87388 7.47606 8.99485V9.00997C7.47606 9.04022 7.45703 9.05534 7.45703 9.08558V9.10071V13.8641C7.45703 13.9095 7.47606 13.9549 7.49508 14.0002C7.49508 14.0153 7.5141 14.0305 7.5141 14.0456C7.5141 14.0607 7.53313 14.0607 7.53313 14.0758C7.55215 14.0909 7.57118 14.1212 7.5902 14.1363C7.60923 14.1514 7.60923 14.1514 7.62825 14.1666C7.6663 14.1968 7.70435 14.2119 7.7424 14.227C7.7424 14.227 7.76142 14.227 7.76142 14.2422C7.81849 14.2573 7.89459 14.2724 7.95167 14.2724H20.9453C21.2117 14.2724 21.44 14.0909 21.44 13.8792V9.11583C21.4209 9.07046 21.4019 9.00997 21.3639 8.96461ZM8.14191 10.4012C8.80776 10.2197 9.32142 9.79631 9.54971 9.26705C9.58776 9.17631 9.68288 9.13095 9.79703 9.13095H19.0239C19.138 9.13095 19.2331 9.19144 19.2712 9.26705C19.4804 9.79631 20.0131 10.2197 20.679 10.4012C20.7931 10.4314 20.8502 10.507 20.8502 10.5978V12.3973C20.8502 12.488 20.7741 12.5636 20.679 12.5939C20.0131 12.7753 19.4995 13.1988 19.2712 13.728C19.2331 13.8188 19.138 13.8641 19.0239 13.8641H9.79703C9.68288 13.8641 9.58776 13.8036 9.54971 13.728C9.34045 13.1988 8.80776 12.7753 8.14191 12.5939C8.02776 12.5636 7.97069 12.488 7.97069 12.3973V10.5978C7.97069 10.5222 8.04679 10.4314 8.14191 10.4012Z" fill="#FF713C"/>
<path d="M4.19998 10.8111L4.20568 11.0031L4.22052 11.5028L4.72043 11.4935L5.90512 11.4712L5.92557 12.1603L4.74088 12.1825L4.24097 12.1919L4.2558 12.6916L4.26181 12.8942L3.00651 11.8756L4.19998 10.8111Z" stroke="#FF713C"/>
<path d="M16.218 4.34849L16.1272 4.34824L15.6272 4.34686L15.625 4.84686L15.6213 5.68104C15.6051 5.68408 15.5857 5.68617 15.5635 5.68611L14.5542 5.68332C14.532 5.68326 14.5127 5.68107 14.4964 5.67793L14.5001 4.84375L14.5023 4.34376L14.0023 4.34237L13.8982 4.34209L15.0522 3.49093C15.055 3.49059 15.0583 3.49037 15.0618 3.49038C15.0654 3.49039 15.0686 3.49062 15.0715 3.49098L16.218 4.34849ZM16.87 4.34755C16.8702 4.34773 16.8684 4.34841 16.8642 4.34903C16.8678 4.34768 16.8699 4.34736 16.87 4.34755ZM13.2559 4.33714C13.256 4.33697 13.2581 4.33732 13.2616 4.33873C13.2576 4.33802 13.2558 4.33731 13.2559 4.33714Z" stroke="#FF713C"/>
<path d="M13.912 19.5211L14.003 19.5194L14.5029 19.5099L14.4879 19.0101L14.4629 18.1761C14.479 18.1727 14.4983 18.1702 14.5204 18.1698L15.5295 18.1507C15.5517 18.1503 15.571 18.152 15.5874 18.1548L15.6124 18.9888L15.6274 19.4886L16.1273 19.4791L16.2315 19.4772L15.107 20.3532C15.1042 20.3536 15.1009 20.3539 15.0974 20.354C15.0939 20.354 15.0906 20.3539 15.0878 20.3536L13.912 19.5211ZM13.2605 19.5362C13.2603 19.536 13.2621 19.5353 13.2662 19.5346C13.2626 19.536 13.2606 19.5364 13.2605 19.5362ZM16.8735 19.4682C16.8734 19.4683 16.8713 19.468 16.8678 19.4667C16.8718 19.4673 16.8736 19.468 16.8735 19.4682Z" stroke="#FF713C"/>
</svg>
