<svg width="34" height="21" viewBox="0 0 34 21" fill="none" xmlns="http://www.w3.org/2000/svg">
<g clip-path="url(#clip0_13427_8528)">
<path d="M29.244 0.402344H25.8348H19.2691H17.8802H15.1023H13.7135H4.11742C2.22346 0.402344 0.708293 1.65854 0.582031 3.25734V17.7607C0.708293 19.3594 2.22346 20.5015 3.8649 20.6156H29.3702C31.2642 20.5015 32.7793 19.1311 32.7793 17.4181V3.59993C32.7793 1.88694 31.138 0.402344 29.244 0.402344Z" fill="white"/>
<path fill-rule="evenodd" clip-rule="evenodd" d="M0.16907 3.23296C0.312627 1.41515 2.02726 0.0234375 4.11615 0.0234375H29.2427C31.3552 0.0234375 33.1908 1.67063 33.1908 3.60346V17.4216C33.1908 19.3581 31.4825 20.875 29.3958 21.0008L29.3823 21.0016H3.84815L3.83272 21.0005C2.02772 20.875 0.313025 19.6149 0.16907 17.7921L0.167969 17.7782V3.24689L0.16907 3.23296ZM0.993542 3.27533V17.7498C1.1092 19.113 2.41259 20.1285 3.87953 20.2367H29.3551C31.0501 20.1288 32.3653 18.9074 32.3653 17.4216V3.60346C32.3653 2.11029 30.9181 0.788305 29.2427 0.788305H4.11615C2.42264 0.788305 1.10996 1.9017 0.993542 3.27533Z" fill="#FF713C"/>
<path d="M31.3922 5.42969H1.97266V9.08408H31.3922V5.42969Z" fill="#FF713C"/>
<path d="M31.3922 4.17254H1.97266V3.60155C1.97266 2.57375 2.98276 1.66016 4.11914 1.66016H29.2456C30.382 1.66016 31.3922 2.45955 31.3922 3.60155V4.17254Z" fill="#FF713C"/>
<path d="M29.3637 7.41016H25.5585C25.3617 7.41016 25.2305 7.54789 25.2305 7.75459C25.2305 7.96129 25.3617 8.09907 25.5585 8.09907H29.3637C29.5605 8.09907 29.6918 7.96129 29.6918 7.75459C29.6918 7.54789 29.495 7.41016 29.3637 7.41016Z" fill="white"/>
<path d="M29.3361 9.47656H23.3559C23.1424 9.47656 23 9.61434 23 9.82104C23 10.0277 23.1424 10.1654 23.3559 10.1654H29.3361C29.5496 10.1654 29.692 10.0277 29.692 9.82104C29.692 9.61434 29.4785 9.47656 29.3361 9.47656Z" fill="white"/>
<path d="M24.0366 12L21.5838 17.25H20.2885L17.8438 12H19.2604L20.9847 15.75L22.7333 12H24.0366ZM28.0519 16.125H25.421L24.9191 17.25H23.5753L26.101 12H27.3962L29.93 17.25H28.5538L28.0519 16.125ZM27.6391 15.2025L26.7405 13.1925L25.8419 15.2025H27.6391Z" fill="#FF713C"/>
</g>
<defs>
<clipPath id="clip0_13427_8528">
<rect width="34" height="21" fill="white"/>
</clipPath>
</defs>
</svg>
