<svg width="16" height="17" viewBox="0 0 16 17" fill="none" xmlns="http://www.w3.org/2000/svg">
<mask id="mask0_13378_162051" style="mask-type:alpha" maskUnits="userSpaceOnUse" x="0" y="0" width="16" height="17">
<path fill-rule="evenodd" clip-rule="evenodd" d="M1.77797 0H14.2224C15.2002 0 16.0002 0.85 16.0002 1.88889V15.1111C16.0002 16.15 15.2002 17 14.2224 17H1.77797C0.791306 17 0.000195313 16.15 0.000195313 15.1111V11.3333H1.77797V15.1111H14.2224V1.88889H1.77797V5.66667H0.000195313V1.88889C0.000195313 0.85 0.791306 0 1.77797 0ZM7.55556 13.2219L6.30222 11.8903L8.59556 9.44417H0V7.55528H8.59556L6.30222 5.10917L7.55556 3.7775L12 8.49973L7.55556 13.2219Z" fill="white"/>
</mask>
<g mask="url(#mask0_13378_162051)">
<path d="M-1.66406 -2.83203H19.6693V19.8346H-1.66406V-2.83203Z" fill="#FF713C"/>
</g>
</svg>
