<svg width="81" height="80" viewBox="0 0 81 80" fill="none" xmlns="http://www.w3.org/2000/svg">
<rect x="0.5" width="80" height="80" rx="5" fill="#707070"/>
<path d="M57.1886 51.273V52.273H58.1886V51.273H57.1886ZM57.1886 43.6367H58.1886V42.6367H57.1886V43.6367ZM44.4766 47.4548C44.4766 45.4882 45.6601 44.6367 46.3183 44.6367V42.6367C44.1661 42.6367 42.4766 44.8181 42.4766 47.4548H44.4766ZM46.3183 50.273C45.6601 50.273 44.4766 49.4215 44.4766 47.4548H42.4766C42.4766 50.0916 44.1661 52.273 46.3183 52.273V50.273ZM57.1886 50.273H46.3183V52.273H57.1886V50.273ZM56.1886 43.6367V51.273H58.1886V43.6367H56.1886ZM46.3183 44.6367H57.1886V42.6367H46.3183V44.6367ZM42.8086 47.4551C42.8086 48.3853 43.1132 49.3462 43.6909 50.0941C44.2801 50.8567 45.1823 51.4248 46.319 51.4248V49.4248C45.905 49.4248 45.552 49.2317 45.2737 48.8714C44.9839 48.4962 44.8086 47.9722 44.8086 47.4551H42.8086ZM46.319 43.4855C45.1823 43.4855 44.28 44.0536 43.6909 44.8163C43.1131 45.5642 42.8086 46.525 42.8086 47.4551H44.8086C44.8086 46.938 44.9839 46.4141 45.2736 46.0389C45.552 45.6786 45.905 45.4855 46.319 45.4855V43.4855ZM49.8295 47.4551C49.8295 46.525 49.525 45.5642 48.9473 44.8163C48.3581 44.0536 47.4559 43.4855 46.319 43.4855V45.4855C46.7332 45.4855 47.0862 45.6786 47.3645 46.0389C47.6543 46.414 47.8295 46.938 47.8295 47.4551H49.8295ZM46.319 51.4248C47.4559 51.4248 48.3581 50.8568 48.9473 50.094C49.525 49.3461 49.8295 48.3853 49.8295 47.4551H47.8295C47.8295 47.9723 47.6542 48.4963 47.3645 48.8714C47.0862 49.2317 46.7332 49.4248 46.319 49.4248V51.4248Z" fill="white"/>
<path d="M51.8369 36.4013V39.4862H46.319C41.9822 39.4862 38.4562 43.3139 38.4562 48.0216C38.4562 52.7294 41.9822 56.557 46.319 56.557H51.8369V59.6421C51.8369 61.342 50.5611 62.727 48.995 62.727H18.6657C18.5745 62.727 18.5 62.6461 18.5 62.547V33.4962C18.5 33.3974 18.5744 33.3164 18.6657 33.3164H48.995C50.5611 33.3164 51.8369 34.7014 51.8369 36.4013Z" stroke="white" stroke-width="2"/>
<path d="M54.2516 32.8398H54.2422C54.8682 33.7417 55.2444 34.859 55.2444 36.0729V39.306H57.2298V36.0729C57.2298 34.2901 55.8939 32.8398 54.2516 32.8398Z" fill="white"/>
<path d="M55.6829 55.2852V59.6429C55.6829 61.279 55.176 62.7848 54.332 64.0005H54.3447C56.5582 64.0005 58.3589 62.0458 58.3589 59.6429V55.2852H55.6829Z" fill="white"/>
<ellipse cx="58.3604" cy="27.0907" rx="11.1378" ry="12.0907" fill="#707070" stroke="white" stroke-width="2"/>
<path d="M56.3064 28.1566C56.8516 27.554 56.842 26.5838 56.2848 25.9941C55.7277 25.4044 54.8309 25.4149 54.2856 26.0176C54.013 26.3189 53.879 26.7121 53.8829 27.1037C53.8869 27.4953 54.0285 27.8853 54.3071 28.1801C54.8643 28.7698 55.7611 28.7593 56.3064 28.1566Z" fill="white"/>
<path d="M58.6074 30.5674C59.4659 29.6186 59.9314 28.3631 59.9181 27.0321C59.9049 25.7013 59.4145 24.4568 58.5373 23.5283C58.312 23.2898 58.0143 23.1604 57.699 23.1641C57.3838 23.1678 57.0886 23.3041 56.8682 23.5479C56.6476 23.7916 56.5279 24.1137 56.5313 24.4547C56.5347 24.7957 56.6608 25.1149 56.8861 25.3534C57.7693 26.2882 57.7846 27.8262 56.9202 28.7814C56.6997 29.0252 56.5801 29.3473 56.5835 29.6882C56.5869 30.0293 56.7128 30.3485 56.9381 30.587C57.1635 30.8255 57.4611 30.9548 57.7765 30.9512C58.0918 30.9475 58.3868 30.8113 58.6074 30.5674Z" fill="white"/>
<path d="M60.9222 32.8491C62.3461 31.2754 63.1181 29.1962 63.0962 26.9946C63.0742 24.7929 62.2609 22.7323 60.8062 21.1924C60.5809 20.9538 60.2831 20.8245 59.9679 20.8282C59.6526 20.8319 59.3575 20.9682 59.137 21.2119C58.9093 21.4635 58.7976 21.7918 58.8009 22.1187C58.8041 22.4456 58.9224 22.7713 59.1549 23.0174C61.2277 25.2116 61.2637 28.8209 59.235 31.0633C59.0145 31.307 58.8949 31.629 58.8983 31.97C58.9017 32.311 59.0276 32.6302 59.253 32.8687C59.4784 33.1072 59.7761 33.2366 60.0913 33.2329C60.4066 33.2292 60.7017 33.093 60.9222 32.8491Z" fill="white"/>
</svg>
