<svg width="80" height="80" viewBox="0 0 80 80" fill="none" xmlns="http://www.w3.org/2000/svg">
<path d="M0 5C0 2.23858 2.23858 0 5 0H75C77.7614 0 80 2.23858 80 5V75C80 77.7614 77.7614 80 75 80H5C2.23858 80 0 77.7614 0 75V5Z" fill="#FF713C"/>
<path fill-rule="evenodd" clip-rule="evenodd" d="M38.9279 42.4256C40.8577 42.4256 42.422 40.878 42.422 38.9686C42.422 37.0594 40.8577 35.5117 38.9279 35.5117C36.9981 35.5117 35.4336 37.0594 35.4336 38.9686C35.4336 40.878 36.9981 42.4256 38.9279 42.4256Z" fill="#FF713C"/>
<path fill-rule="evenodd" clip-rule="evenodd" d="M47.3976 47.0352H31.6278C31.1553 47.0352 30.7773 47.5474 30.7773 48.1874C30.7773 48.8277 31.1553 49.3397 31.6278 49.3397H47.3976C47.8701 49.3397 48.2482 48.8277 48.2482 48.1874C48.2346 47.5474 47.8566 47.0352 47.3976 47.0352Z" fill="#FF713C"/>
<path fill-rule="evenodd" clip-rule="evenodd" d="M49.1823 33.042C49.1456 32.9952 49.0969 32.9485 49.0482 32.9134C48.8655 32.773 48.6463 32.6797 48.4028 32.6797H46.2232H32.8036H30.624C30.0637 32.6797 29.6133 33.1122 29.6133 33.65V44.3845C29.6133 44.9225 30.0637 45.3551 30.624 45.3551H48.4028C48.9631 45.3551 49.4135 44.9225 49.4135 44.3845V33.65C49.4135 33.4163 49.3284 33.2057 49.1823 33.042ZM47.635 41.449C46.3685 41.449 45.3455 42.4313 45.3455 43.6473H33.6554C33.6554 42.4313 32.6324 41.449 31.3659 41.449V36.5729C32.6324 36.5729 33.6554 35.5906 33.6554 34.3746H45.3455C45.3455 35.5906 46.3685 36.5729 47.635 36.5729V41.449Z" fill="#F2E5E0"/>
<mask id="mask0_13413_30992" style="mask-type:alpha" maskUnits="userSpaceOnUse" x="35" y="35" width="8" height="8">
<path fill-rule="evenodd" clip-rule="evenodd" d="M35.4336 38.9686C35.4336 40.8778 36.9981 42.4256 38.9277 42.4256C40.8577 42.4256 42.4222 40.8778 42.4222 38.9686C42.4222 37.0594 40.8577 35.5117 38.9277 35.5117C36.9981 35.5117 35.4336 37.0594 35.4336 38.9686Z" fill="white"/>
</mask>
<g mask="url(#mask0_13413_30992)">
<path fill-rule="evenodd" clip-rule="evenodd" d="M-27.4609 461.87H409.311V-473.812H-27.4609V461.87Z" fill="#FF713C"/>
<path fill-rule="evenodd" clip-rule="evenodd" d="M29.6094 48.1872H48.2451V29.75H29.6094V48.1872Z" fill="#FF713C"/>
</g>
<mask id="mask1_13413_30992" style="mask-type:alpha" maskUnits="userSpaceOnUse" x="30" y="47" width="19" height="3">
<path fill-rule="evenodd" clip-rule="evenodd" d="M31.628 47.0352C31.1553 47.0352 30.7773 47.5474 30.7773 48.1874C30.7773 48.8277 31.1553 49.3397 31.628 49.3397H47.3976C47.8702 49.3397 48.2482 48.8277 48.2482 48.1874C48.2346 47.5474 47.8564 47.0352 47.3976 47.0352H31.628Z" fill="white"/>
</mask>
<g mask="url(#mask1_13413_30992)">
<path fill-rule="evenodd" clip-rule="evenodd" d="M-27.4609 461.87H409.311V-473.812H-27.4609V461.87Z" fill="#FF713C"/>
<path fill-rule="evenodd" clip-rule="evenodd" d="M24.9531 55.1013H54.0713V41.2734H24.9531V55.1013Z" fill="#FF713C"/>
</g>
<path fill-rule="evenodd" clip-rule="evenodd" d="M59.0679 48.678C59.0284 48.678 58.9887 48.6764 58.949 48.6734C58.5211 48.6406 58.1266 48.4317 57.8616 48.0978L52.8932 41.8412C52.3697 41.1822 52.4855 40.228 53.1516 39.7102C53.818 39.1925 54.7823 39.3071 55.3056 39.966L58.0421 43.412C58.1746 42.5669 58.2486 41.7109 58.2628 40.8521C58.3427 36.0455 56.5541 31.4543 53.2262 27.9246C49.9005 24.397 45.4026 22.3151 40.5611 22.0624C34.7149 21.7572 29.1785 24.0559 25.3688 28.3687C24.8114 28.9997 23.8423 29.0642 23.2043 28.5129C22.5663 27.9612 22.5012 27.0024 23.0586 26.3715C27.4922 21.3522 33.9305 18.6767 40.7227 19.0313C46.3619 19.3255 51.5992 21.7486 55.4697 25.8543C59.3421 29.9617 61.4234 35.3058 61.3304 40.902C61.3179 41.6523 61.2662 42.4013 61.1759 43.1442L63.4203 41.0761C64.0402 40.5049 65.0111 40.5391 65.5884 41.1524C66.1658 41.7657 66.1313 42.726 65.5114 43.2974L60.1134 48.2708C59.8284 48.5334 59.4543 48.678 59.0679 48.678Z" stroke="#FCF6F3"/>
<path d="M39.4733 61.9982C39.0756 61.9982 38.6775 61.9878 38.2772 61.9669C32.6379 61.6727 27.4006 59.2495 23.5299 55.1439C19.6577 51.0365 17.5764 45.6924 17.6694 40.0962C17.6819 39.3457 17.7337 38.5969 17.824 37.8538L15.5796 39.922C14.9594 40.4932 13.9888 40.4591 13.4114 39.8458C12.8341 39.2323 12.8686 38.2719 13.4885 37.7007L18.8865 32.7273C19.2006 32.4378 19.6226 32.2923 20.0508 32.3248C20.4786 32.3576 20.8732 32.5665 21.1382 32.9003L26.1067 39.1569C26.6302 39.816 26.5144 40.7702 25.8482 41.2879C25.1821 41.8058 24.2176 41.6914 23.6943 41.0322L20.9578 37.5862C20.8253 38.4313 20.7513 39.2873 20.7371 40.1461C20.6571 44.9525 22.4458 49.5437 25.7736 53.0736C29.0994 56.6012 33.5971 58.6831 38.4386 58.9358C44.2838 59.2397 49.8213 56.9423 53.6309 52.6295C54.1883 51.9983 55.1572 51.9336 55.7955 52.4853C56.4335 53.0368 56.4987 53.9956 55.9411 54.6267C51.769 59.3503 45.8203 61.9982 39.4733 61.9982" stroke="#FCF6F3"/>
<mask id="mask2_13413_30992" style="mask-type:alpha" maskUnits="userSpaceOnUse" x="35" y="35" width="8" height="8">
<path fill-rule="evenodd" clip-rule="evenodd" d="M35.4336 38.9686C35.4336 40.8778 36.9981 42.4256 38.9277 42.4256C40.8577 42.4256 42.4222 40.8778 42.4222 38.9686C42.4222 37.0594 40.8577 35.5117 38.9277 35.5117C36.9981 35.5117 35.4336 37.0594 35.4336 38.9686Z" fill="white"/>
</mask>
<g mask="url(#mask2_13413_30992)">
<path fill-rule="evenodd" clip-rule="evenodd" d="M-27.4609 461.87H409.311V-473.812H-27.4609V461.87Z" fill="#FF713C"/>
<path fill-rule="evenodd" clip-rule="evenodd" d="M29.6094 48.1872H48.2451V29.75H29.6094V48.1872Z" fill="#F9F0ED"/>
</g>
<mask id="mask3_13413_30992" style="mask-type:alpha" maskUnits="userSpaceOnUse" x="30" y="47" width="19" height="3">
<path fill-rule="evenodd" clip-rule="evenodd" d="M31.628 47.0352C31.1553 47.0352 30.7773 47.5474 30.7773 48.1874C30.7773 48.8277 31.1553 49.3397 31.628 49.3397H47.3976C47.8702 49.3397 48.2482 48.8277 48.2482 48.1874C48.2346 47.5474 47.8564 47.0352 47.3976 47.0352H31.628Z" fill="white"/>
</mask>
<g mask="url(#mask3_13413_30992)">
<path fill-rule="evenodd" clip-rule="evenodd" d="M-27.4609 461.87H409.311V-473.812H-27.4609V461.87Z" fill="#FF713C"/>
<path fill-rule="evenodd" clip-rule="evenodd" d="M24.9531 55.1013H54.0713V41.2734H24.9531V55.1013Z" fill="#FF713C"/>
</g>
<path fill-rule="evenodd" clip-rule="evenodd" d="M59.0679 48.678C59.0284 48.678 58.9887 48.6764 58.949 48.6734C58.5211 48.6406 58.1266 48.4317 57.8616 48.0978L52.8932 41.8412C52.3697 41.1822 52.4855 40.228 53.1516 39.7102C53.818 39.1925 54.7823 39.3071 55.3056 39.966L58.0421 43.412C58.1746 42.5669 58.2486 41.7109 58.2628 40.8521C58.3427 36.0455 56.5541 31.4543 53.2262 27.9246C49.9005 24.397 45.4026 22.3151 40.5611 22.0624C34.7149 21.7572 29.1785 24.0559 25.3688 28.3687C24.8114 28.9997 23.8423 29.0642 23.2043 28.5129C22.5663 27.9612 22.5012 27.0024 23.0586 26.3715C27.4922 21.3522 33.9305 18.6767 40.7227 19.0313C46.3619 19.3255 51.5992 21.7486 55.4697 25.8543C59.3421 29.9617 61.4234 35.3058 61.3304 40.902C61.3179 41.6523 61.2662 42.4013 61.1759 43.1442L63.4203 41.0761C64.0402 40.5049 65.0111 40.5391 65.5884 41.1524C66.1658 41.7657 66.1313 42.726 65.5114 43.2974L60.1134 48.2708C59.8284 48.5334 59.4543 48.678 59.0679 48.678Z" stroke="#FAF1EE"/>
<path d="M39.4733 61.9982C39.0756 61.9982 38.6775 61.9878 38.2772 61.9669C32.6379 61.6727 27.4006 59.2495 23.5299 55.1439C19.6577 51.0365 17.5764 45.6924 17.6694 40.0962C17.6819 39.3457 17.7337 38.5969 17.824 37.8538L15.5796 39.922C14.9594 40.4932 13.9888 40.4591 13.4114 39.8458C12.8341 39.2323 12.8686 38.2719 13.4885 37.7007L18.8865 32.7273C19.2006 32.4378 19.6226 32.2923 20.0508 32.3248C20.4786 32.3576 20.8732 32.5665 21.1382 32.9003L26.1067 39.1569C26.6302 39.816 26.5144 40.7702 25.8482 41.2879C25.1821 41.8058 24.2176 41.6914 23.6943 41.0322L20.9578 37.5862C20.8253 38.4313 20.7513 39.2873 20.7371 40.1461C20.6571 44.9525 22.4458 49.5437 25.7736 53.0736C29.0994 56.6012 33.5971 58.6831 38.4386 58.9358C44.2838 59.2397 49.8213 56.9423 53.6309 52.6295C54.1883 51.9983 55.1572 51.9336 55.7955 52.4853C56.4335 53.0368 56.4987 53.9956 55.9411 54.6267C51.769 59.3503 45.8203 61.9982 39.4733 61.9982" stroke="#FAF1EE"/>
</svg>
