<svg width="80" height="80" viewBox="0 0 80 80" fill="none" xmlns="http://www.w3.org/2000/svg">
<rect width="80" height="80" rx="5" fill="#FFC633"/>
<path d="M40.7539 42.7974H41.8983V56.7923H40.7539V59.453H45.7673V56.7923H44.6229V42.7974H45.7673V40.1367H40.7539V42.7974Z" fill="#5E5656"/>
<path d="M32.4141 42.7974H33.5584V56.7923H32.4141V59.453H37.4274V56.7923H36.2831V42.7974H37.4274V40.1367H32.4141V42.7974Z" fill="#5E5656"/>
<path d="M41.5725 30.7188H37.8125V33.3794H41.5725V30.7188Z" fill="#5E5656"/>
<path d="M66.6377 35.2962H57.0468L40.8623 23.8554V15.6606H45.3853V17.0974H43.1511V19.758H48.1099V13H38.1377V23.8554L28.3289 30.7731L22.2256 35.2962H12.3623C11.5994 35.2962 11 35.8815 11 36.6265V60.998C11 61.743 11.5994 62.3283 12.3623 62.3283H17.0488V64.6165C17.0488 65.3614 17.6482 65.9468 18.4111 65.9468H60.5889C61.3518 65.9468 61.9512 65.3614 61.9512 64.6165V62.3283H66.6377C67.4006 62.3283 68 61.743 68 60.998V36.6265C68 35.8815 67.4006 35.2962 66.6377 35.2962ZM29.9637 32.9016L39.5 26.1436L52.4149 35.2962H26.7486L29.9637 32.9016ZM60.8614 59.7209C60.7524 59.7209 60.6979 59.6677 60.5889 59.6677H57.7008V58.1245C57.7008 57.3795 57.1013 56.7942 56.3384 56.7942H54.1042H53.9952H52.9598V42.7992H54.1042V40.1386H49.0908V42.7992H50.2352V56.8474H49.0908V59.508H53.9952H54.1042H54.9761V61.0512C54.9761 61.7962 55.5755 62.3815 56.3384 62.3815H59.2266V63.3926H19.7734V62.3815H22.2801C23.043 62.3815 23.6424 61.7962 23.6424 61.0512V59.508H24.0784H24.2419H29.0918V56.8474H27.9474V42.7992H29.0918V40.1386H24.0784V42.7992H25.2228V56.8474H24.2419H24.0784H22.3346C21.5717 56.8474 20.9723 57.4327 20.9723 58.1777V59.7209H18.4656C18.3566 59.7209 18.3021 59.7209 18.1931 59.7741H13.7247V42.7992H20.1549V40.1386H13.7247V38.01H22.7161V36.6797V38.01H56.6109H65.2753V40.1386H58.7906V42.7992H65.2753V59.7209H60.8614Z" fill="#5A5757"/>
<path d="M19.7715 47.375H17.0469V50.3549H19.7715V47.375Z" fill="#5E5656"/>
<path d="M19.7715 53.7617H17.0469V56.7416H19.7715V53.7617Z" fill="#5E5656"/>
<path d="M62.9864 47.375H60.2617V50.3549H62.9864V47.375Z" fill="#5E5656"/>
<path d="M62.9864 53.7617H60.2617V56.7416H62.9864V53.7617Z" fill="#5E5656"/>
</svg>
