<svg width="91" height="16" viewBox="0 0 91 16" fill="none" xmlns="http://www.w3.org/2000/svg">
<path d="M48.2181 3.94068C48.2181 3.70581 48.2181 3.47094 48.2181 3.23992L48.2522 2.20034L49.3013 2.15413C49.3506 2.15413 49.3998 2.15413 49.4491 2.15413C49.6687 2.12333 49.7331 2.22344 49.7331 2.44291C49.7331 3.21297 49.7331 4.02153 49.7331 4.80699C49.7331 6.94391 49.7331 9.08083 49.7331 11.2139C49.7331 13.7551 48.1082 15.584 45.6273 15.9074C43.7265 16.1957 41.7864 15.7993 40.1428 14.787L39.8966 14.6253C39.8663 14.6022 39.8397 14.5714 39.7829 14.5213L40.4041 13.4355C41.1351 13.7667 41.8169 14.1478 42.5404 14.3943C43.5962 14.7677 44.7386 14.8067 45.8167 14.5059C47.2977 14.0862 48.0893 12.9658 48.2256 11.4565C48.2711 10.9713 48.2559 10.4823 48.2635 9.99335C48.2605 9.87093 48.2504 9.74879 48.2332 9.62758C46.9909 11.3025 45.4228 12.0802 43.438 11.8107C42.2451 11.6595 41.1536 11.0524 40.3852 10.1127C39.648 9.18615 39.2534 8.02634 39.27 6.83479C39.2866 5.64324 39.7134 4.49526 40.4761 3.5903C40.9689 3.03285 41.5778 2.59407 42.2584 2.30584C42.939 2.01762 43.6742 1.8872 44.4106 1.92408C45.147 1.96095 45.8661 2.1642 46.5155 2.51902C47.165 2.87385 47.7285 3.37134 48.165 3.97533L48.2332 3.93297L48.2181 3.94068ZM40.8359 6.83995C40.811 7.59416 41.026 8.33642 41.4491 8.95652C41.8721 9.57663 42.4807 10.0415 43.1843 10.2821C44.1673 10.6325 45.2467 10.5744 46.1879 10.1204C46.6524 9.92046 47.0683 9.61961 47.4063 9.23897C47.7444 8.85832 47.9964 8.4071 48.1448 7.91696C48.2931 7.42682 48.3341 6.90962 48.265 6.40164C48.1959 5.89367 48.0183 5.40721 47.7446 4.97641C47.4316 4.50212 47.0181 4.10515 46.5343 3.81465C46.0506 3.52415 45.509 3.34749 44.9493 3.29767C42.8737 3.0243 40.8207 4.41426 40.8359 6.83995Z" fill="#E85125"/>
<path d="M36.8382 12.6799V11.2245L36.7662 11.1899C36.6943 11.2592 36.6223 11.3285 36.5579 11.4016C35.8349 12.1745 34.8827 12.6851 33.847 12.8555C32.8113 13.0259 31.7493 12.8465 30.8234 12.345C30.2991 12.0805 29.8652 11.6619 29.5781 11.1435C29.291 10.625 29.164 10.0308 29.2136 9.43798C29.2183 8.83906 29.398 8.25507 29.7298 7.76012C30.0616 7.26517 30.5305 6.88159 31.0771 6.65806C31.7317 6.35814 32.4388 6.1945 33.1566 6.17677C34.3135 6.11485 35.4728 6.23828 36.592 6.54255C36.6564 6.5618 36.7208 6.5695 36.8685 6.6003C36.8578 6.24703 36.8262 5.89472 36.7738 5.54532C36.6927 4.99724 36.4328 4.49276 36.0358 4.1129C35.6387 3.73304 35.1276 3.49984 34.5845 3.45075C33.4133 3.2793 32.2182 3.43365 31.1264 3.89739L30.5961 4.12071C30.4484 3.70872 30.2969 3.30444 30.1454 2.88091C30.8303 2.53577 31.5577 2.28582 32.3081 2.1378C33.4048 1.89933 34.5413 1.9257 35.6261 2.2148C36.3788 2.40868 37.047 2.8504 37.5267 3.47102C38.0063 4.09163 38.2703 4.85622 38.2775 5.64542C38.3192 7.89785 38.3002 10.1541 38.3116 12.4066C38.3116 12.6145 38.2472 12.6915 38.0389 12.6838C37.6601 12.6838 37.2814 12.6838 36.8344 12.6838L36.8382 12.6799ZM36.8344 8.53701C36.823 8.41921 36.823 8.30057 36.8344 8.18278C36.8874 7.88246 36.7435 7.76694 36.4822 7.72074C35.9595 7.62833 35.4443 7.50127 34.9178 7.43582C34.0259 7.28774 33.1128 7.34164 32.2437 7.59368C31.2779 7.91326 30.7287 8.61016 30.7287 9.51884C30.724 9.97378 30.8713 10.4169 31.1465 10.7757C31.4217 11.1345 31.8086 11.3877 32.2437 11.494C32.8338 11.6894 33.462 11.7343 34.0732 11.6249C35.5617 11.3901 36.967 10.3582 36.8496 8.5447" fill="#E85125"/>
<path d="M59.3785 10.1244L60.2989 10.9637C59.7843 11.5924 59.137 12.0951 58.4051 12.4346C55.5605 13.7013 51.9925 12.5501 51.091 9.05398C50.5267 6.87856 50.9395 4.88026 52.5455 3.27853C53.1284 2.69723 53.8502 2.28018 54.6397 2.06841C55.4293 1.85663 56.2594 1.85742 57.0486 2.0707C57.8378 2.28397 58.5587 2.70239 59.1406 3.28479C59.7224 3.86719 60.1451 4.59352 60.3671 5.39235C60.5786 6.13012 60.682 6.89558 60.6739 7.66402C60.6739 7.9451 60.5905 8.0221 60.3254 8.0221C58.8331 8.0221 57.3407 8.0221 55.8484 8.0221H52.8447C52.7084 8.0221 52.5758 8.0221 52.4432 8.04521C52.4647 8.67317 52.6428 9.28528 52.9608 9.82408C53.2789 10.3629 53.7264 10.8107 54.2613 11.1254C55.5037 11.8224 57.6702 11.8955 59.3709 10.1167L59.3785 10.1244ZM59.1777 6.79386C59.0773 6.3186 58.9509 5.84941 58.799 5.3885C58.0414 3.31318 55.7878 2.55082 54.0189 3.77137C53.5946 4.07943 53.2359 4.47154 52.9645 4.92412C52.6931 5.37671 52.5145 5.88043 52.4395 6.40498C52.3637 6.79001 52.3751 6.81696 52.7576 6.81696H58.7611C58.8634 6.81696 58.9656 6.81696 59.1664 6.79386" fill="#E85125"/>
<path d="M61.7812 12.6787V2.17892H63.2622V3.8538L63.3418 3.88076L63.5387 3.61124C64.5122 2.25208 65.8341 1.77079 67.4476 1.94405C69.5119 2.16352 70.7883 3.7768 70.8073 5.97532C70.8073 8.08914 70.8073 10.2107 70.8073 12.3206C70.8073 12.5978 70.7353 12.6864 70.4664 12.671C70.0876 12.6479 69.7089 12.671 69.2998 12.671V12.286C69.2998 10.3608 69.2998 8.39717 69.2998 6.44891C69.2895 5.98295 69.2116 5.52107 69.0687 5.0782C68.9237 4.59054 68.6341 4.16025 68.2396 3.84604C67.8451 3.53182 67.3648 3.34898 66.8643 3.32246C64.7887 3.08759 63.2736 4.47755 63.2736 6.61832C63.2736 8.50497 63.2736 10.3916 63.2736 12.2783C63.2736 12.6633 63.2736 12.6633 62.8948 12.6633H61.7964" fill="#E85125"/>
<path d="M77.7198 12.6753V10.1379H72.6367V8.01639L78.0228 0.00390625H80.0264V8.01254H81.5794V10.1418H80.0264V12.6791L77.7198 12.6753ZM77.7198 8.00869V3.6925L74.8639 8.00869H77.7198Z" fill="#066381"/>
<path d="M90.7674 3.14074L88.4607 3.39871C88.4438 3.00138 88.288 2.62321 88.0214 2.33218C87.8974 2.21542 87.7519 2.12471 87.5933 2.06524C87.4347 2.00577 87.2661 1.97873 87.0972 1.98565C86.8457 1.98778 86.5985 2.05197 86.3768 2.17269C86.1551 2.29342 85.9656 2.46706 85.8245 2.6787C85.4761 3.13561 85.2564 4.09048 85.1655 5.54333C85.4304 5.2066 85.7673 4.93559 86.1505 4.7508C86.5337 4.56602 86.9533 4.47232 87.3775 4.4768C87.86 4.47304 88.3377 4.57416 88.7787 4.77337C89.2196 4.97258 89.6136 5.26529 89.9341 5.63189C90.6586 6.44533 91.0395 7.51567 90.9947 8.61202C91.0214 9.17917 90.9367 9.74605 90.7455 10.2795C90.5543 10.813 90.2605 11.3025 89.8811 11.7192C89.479 12.117 89.0004 12.4262 88.4753 12.6272C87.9502 12.8283 87.3899 12.917 86.8295 12.8877C86.2691 12.8584 85.7207 12.7118 85.2186 12.4571C84.7165 12.2024 84.2716 11.845 83.9117 11.4073C83.0936 10.3986 82.7148 8.79299 82.7148 6.54826C82.7148 4.30353 83.1353 2.56705 83.9799 1.54286C84.3726 1.04717 84.8726 0.650296 85.4408 0.383164C86.0091 0.116031 86.6304 -0.0141544 87.2563 0.00274242C88.1086 -0.0314498 88.9434 0.255066 89.6008 0.807455C90.257 1.41782 90.6762 2.24698 90.7826 3.14459L90.7674 3.14074ZM85.3662 8.42336C85.326 9.07621 85.5168 9.72216 85.9041 10.2446C86.0458 10.4378 86.2289 10.5958 86.4396 10.7065C86.6502 10.8172 86.8828 10.8778 87.1199 10.8837C87.3313 10.8874 87.5407 10.8421 87.7323 10.7514C87.9239 10.6607 88.0927 10.5269 88.2259 10.3601C88.5638 9.85519 88.7203 9.24739 88.6691 8.63897C88.7215 7.99894 88.5527 7.36036 88.1918 6.83319C88.0517 6.65442 87.8742 6.50958 87.6722 6.4092C87.4702 6.30882 87.2488 6.25541 87.0239 6.25283C86.7991 6.25025 86.5765 6.29857 86.3723 6.39429C86.1682 6.49001 85.9875 6.63072 85.8435 6.80623C85.4965 7.26851 85.3269 7.8433 85.3662 8.42336Z" fill="#066381"/>
<path d="M0 1.54314H3.8407C4.29078 1.53939 4.73928 1.59767 5.17396 1.7164C5.55748 1.81886 5.91856 1.9939 6.2383 2.23234C6.53428 2.4562 6.77432 2.74769 6.93901 3.08326C7.11733 3.47369 7.20543 3.9004 7.19658 4.33076C7.2194 4.90574 7.0303 5.46868 6.6663 5.90938C6.29557 6.32852 5.82063 6.63842 5.29138 6.80651V6.83731C5.61898 6.85734 5.93888 6.9465 6.23072 7.09913C6.51862 7.25003 6.77569 7.45517 6.98825 7.70363C7.2071 7.95774 7.37904 8.24991 7.4958 8.5661C7.62359 8.90522 7.68782 9.26564 7.68519 9.62878C7.69463 10.0957 7.58917 10.5576 7.37838 10.9725C7.17638 11.3569 6.89152 11.6899 6.5451 11.9467C6.17232 12.2215 5.75412 12.4262 5.31032 12.5512C4.81709 12.6905 4.30715 12.7592 3.79525 12.7552H0.00757479L0 1.54314ZM1.51507 6.20586H3.55284C3.82049 6.20858 4.08751 6.17886 4.34825 6.1173C4.5842 6.0668 4.80731 5.96716 5.00351 5.82468C5.19205 5.68579 5.34421 5.50203 5.44667 5.28948C5.5627 5.05029 5.61989 4.78604 5.61333 4.51942C5.6232 4.28893 5.58362 4.05902 5.49732 3.84564C5.41103 3.63226 5.28009 3.44052 5.1136 3.28373C4.94711 3.12694 4.74905 3.00886 4.53317 2.93767C4.31729 2.86648 4.08875 2.8439 3.86342 2.87149H1.49992L1.51507 6.20586ZM1.51507 11.4423H3.71571C3.96984 11.4404 4.22332 11.416 4.47324 11.3691C4.74072 11.3219 4.99746 11.2253 5.23077 11.0842C5.47289 10.939 5.68099 10.7419 5.84059 10.5066C6.01702 10.2159 6.10284 9.87763 6.08679 9.53637C6.10769 9.25097 6.0604 8.96467 5.94894 8.70186C5.83748 8.43905 5.66516 8.20754 5.44667 8.02705C4.93857 7.67024 4.32865 7.49426 3.71192 7.52651H1.49992L1.51507 11.4423Z" fill="#E85125"/>
<path d="M9.83203 1.54297H11.8016L17.8884 10.7837H17.9187V1.54297H19.4338V12.7743H17.5399L11.3888 3.53358H11.3585V12.7743H9.84339L9.83203 1.54297Z" fill="#E85125"/>
<path d="M22.2617 1.54297H23.7768V12.7743H22.2617V1.54297Z" fill="#E85125"/>
</svg>
