<svg width="37" height="37" viewBox="0 0 37 37" fill="none" xmlns="http://www.w3.org/2000/svg">
<path fill-rule="evenodd" clip-rule="evenodd" d="M3.083 3.083V9.25H0V3.083C0 2.266 0.325 1.481 0.903 0.903C1.481 0.325 2.266 0 3.083 0H9.25V3.083H3.083ZM6.167 6.167H15.417V15.417H6.167V6.167ZM30.833 6.167V15.417H21.583V6.167H30.833ZM24.667 23.125H21.583V24.667H16.958V30.833H20.042V27.75H24.667V30.833H27.75V27.75H30.833V23.125H27.75V20.042H30.833V16.958H27.75V20.042H24.667V16.958H21.583V20.042H24.667V23.125ZM24.667 23.125H27.75V27.75H24.667V23.125ZM6.167 21.583V30.833H15.417V21.583H6.167ZM9.25 9.25V12.333H12.333V9.25H9.25ZM24.667 12.333V9.25H27.75V12.333H24.667ZM9.25 24.667V27.75H12.333V24.667H9.25ZM9.25 16.958H6.167V20.042H9.25V16.958ZM13.875 16.958H20.042V23.125H16.958V20.042H13.875V16.958ZM20.042 9.25H16.958V15.417H20.042V9.25ZM36.097 0.903C35.519 0.325 34.734 0 33.917 0H27.75V3.083H33.917V9.25H37V3.083C37 2.266 36.675 1.481 36.097 0.903ZM3.083 27.75V33.917H9.25V37H3.083C2.266 37 1.481 36.675 0.903 36.097C0.325 35.519 0 34.734 0 33.917V27.75H3.083ZM33.917 27.75V33.917H27.75V37H33.917C34.734 37 35.519 36.675 36.097 36.097C36.675 35.519 37 34.734 37 33.917V27.75H33.917Z" fill="white"/>
</svg>
