<svg width="19" height="20" viewBox="0 0 19 20" fill="none" xmlns="http://www.w3.org/2000/svg">
<path fill-rule="evenodd" clip-rule="evenodd" d="M11.3219 12.8C11.7124 12.8 12.0376 13.0857 12.0376 13.4286H12.1028V19.3714C12.1028 19.7143 12.4281 20 12.8185 20H18.2843C18.6747 20 19 19.7143 19 19.3714V8.62857C19 8.28571 18.7397 7.77143 18.4794 7.54285L10.0205 0.171429C9.69521 -0.057143 9.23972 -0.057143 8.97944 0.171429L0.52055 7.54285C0.260275 7.77143 0 8.28571 0 8.62857V19.3714C0 19.7143 0.325346 20 0.715757 20H6.1815C6.57191 20 6.89726 19.7143 6.89726 19.3714V13.4286C6.89726 13.0857 7.2226 12.8 7.61302 12.8H11.3219ZM11.1767 8.49963C11.1767 9.32806 10.4261 9.99963 9.5002 9.99963C8.57431 9.99963 7.82373 9.32806 7.82373 8.49963C7.82373 7.6712 8.57431 6.99963 9.5002 6.99963C10.4261 6.99963 11.1767 7.6712 11.1767 8.49963Z" fill="#FFB800"/>
</svg>
