<svg width="20" height="20" viewBox="0 0 20 20" fill="none" xmlns="http://www.w3.org/2000/svg">
<path d="M9.9115 19.9997C11.345 19.9997 12.5078 18.9276 12.5078 17.6047H7.31524C7.31524 18.9276 8.47802 19.9997 9.9115 19.9997ZM18.6532 14.3973C17.8691 13.6205 16.4019 12.4518 16.4019 8.62355C16.4019 5.71588 14.1908 3.38826 11.2094 2.8172V2.03734C11.2094 1.3761 10.6282 0.839844 9.9115 0.839844C9.19476 0.839844 8.61357 1.3761 8.61357 2.03734V2.8172C5.63216 3.38826 3.42106 5.71588 3.42106 8.62355C3.42106 12.4518 1.95389 13.6205 1.16978 14.3973C0.926269 14.6387 0.818311 14.9272 0.820341 15.2098C0.824805 15.8235 1.34714 16.4072 2.12314 16.4072H17.6999C18.4759 16.4072 18.9986 15.8235 19.0027 15.2098C19.0047 14.9272 18.8967 14.6383 18.6532 14.3973Z" fill="white"/>
</svg>
